<svg width="679" height="139" viewBox="0 0 679 139" fill="none" xmlns="http://www.w3.org/2000/svg">
<mask id="mask0_36_246" style="mask-type:luminance" maskUnits="userSpaceOnUse" x="0" y="0" width="679" height="139">
<path d="M0 0H678.194V138.013H0V0Z" fill="white"/>
</mask>
<g mask="url(#mask0_36_246)">
<mask id="mask1_36_246" style="mask-type:luminance" maskUnits="userSpaceOnUse" x="0" y="0" width="679" height="139">
<path d="M678.194 32.5533V105.459C678.194 123.439 663.62 138.013 645.641 138.013H32.7524C14.7729 138.013 0.199051 123.439 0.199051 105.459V32.5533C0.199051 14.5738 14.7729 0 32.7524 0H645.641C663.62 0 678.194 14.5738 678.194 32.5533Z" fill="white"/>
</mask>
<g mask="url(#mask1_36_246)">
<path d="M678.194 0V138.013H1.52588e-05V0H678.194Z" fill="#FF914D"/>
</g>
</g>
<path d="M52.9763 102.532H25.1998C24.0941 102.532 23.2906 102.288 22.7819 101.794C22.288 101.286 22.0448 100.482 22.0448 99.3766V89.0857C22.0448 87.9652 22.288 87.1617 22.7819 86.6678C23.2906 86.1813 24.0941 85.9306 25.1998 85.9306H48.8482C49.6148 85.9306 50.1825 85.6874 50.5584 85.1935C50.9491 84.6848 51.1481 84.073 51.1481 83.3653C51.1481 82.3627 50.9491 81.6403 50.5584 81.1833C50.1825 80.7115 49.6148 80.4461 48.8482 80.3871L35.6676 78.5295C31.5542 77.9397 28.2517 76.5981 25.7601 74.4898C23.2832 72.3889 22.0448 68.8726 22.0448 63.9335V54.7042C22.0448 49.7357 23.6518 45.9172 26.8806 43.2634C30.102 40.5948 34.5545 39.2532 40.2381 39.2532H64.8595C65.9578 39.2532 66.754 39.5038 67.2479 39.9903C67.7565 40.4842 68.0145 41.2878 68.0145 42.4083V52.876C68.0145 53.9818 67.7565 54.7853 67.2479 55.2939C66.754 55.7878 65.9578 56.0311 64.8595 56.0311H44.3662C43.5995 56.0311 43.0098 56.2891 42.597 56.7978C42.1989 57.2917 42.0073 57.9109 42.0073 58.6554C42.0073 59.4221 42.1989 60.0708 42.597 60.6015C43.0098 61.1323 43.5995 61.4272 44.3662 61.4861L57.4583 63.2259C61.5643 63.8156 64.8742 65.172 67.3953 67.295C69.9091 69.4033 71.1696 72.9122 71.1696 77.8218V87.0511C71.1696 92.0491 69.5478 95.8824 66.3043 98.5509C63.0608 101.205 58.6156 102.532 52.9763 102.532Z" fill="#FF00FF"/>
<path d="M124.702 102.532H83.9216C82.8012 102.532 81.9903 102.288 81.5037 101.794C81.0098 101.286 80.7666 100.482 80.7666 99.3766V42.4083C80.7666 41.2878 81.0098 40.4842 81.5037 39.9903C81.9903 39.5038 82.8012 39.2532 83.9216 39.2532H124.702C125.822 39.2532 126.626 39.5038 127.12 39.9903C127.628 40.4842 127.886 41.2878 127.886 42.4083V52.6991C127.886 53.8049 127.628 54.6084 127.12 55.117C126.626 55.6109 125.822 55.8542 124.702 55.8542H100.434V62.6361H117.595C118.694 62.6361 119.49 62.8868 119.984 63.3733C120.493 63.8672 120.751 64.6707 120.751 65.7912V75.1975C120.751 76.318 120.493 77.1288 119.984 77.6154C119.49 78.1093 118.694 78.3525 117.595 78.3525H100.434V85.9306H124.702C125.822 85.9306 126.626 86.1813 127.12 86.6678C127.628 87.1617 127.886 87.9652 127.886 89.0857V99.3766C127.886 100.482 127.628 101.286 127.12 101.794C126.626 102.288 125.822 102.532 124.702 102.532Z" fill="#FF00FF"/>
<path d="M180.355 102.532H158.888C151.576 102.532 146.135 101.072 142.582 98.1381C139.044 95.2116 137.275 90.7001 137.275 84.6037V57.2695C137.275 51.1805 139.044 46.6543 142.582 43.7057C146.135 40.7423 151.576 39.2532 158.888 39.2532H180.355C181.453 39.2532 182.249 39.5038 182.743 39.9903C183.252 40.4842 183.51 41.2878 183.51 42.4083V53.0529C183.51 54.1587 183.252 54.9622 182.743 55.4709C182.249 55.9648 181.453 56.208 180.355 56.208H162.663C160.849 56.208 159.508 56.584 158.623 57.3285C157.753 58.0583 157.326 59.1493 157.326 60.6015V81.5371C157.326 82.9967 157.753 84.0656 158.623 84.7512C159.508 85.422 160.849 85.7537 162.663 85.7537H180.355C181.453 85.7537 182.249 86.0043 182.743 86.4909C183.252 86.9848 183.51 87.7883 183.51 88.9088V99.3766C183.51 100.482 183.252 101.286 182.743 101.794C182.249 102.288 181.453 102.532 180.355 102.532Z" fill="#FF00FF"/>
<path d="M213.288 55.058V66.322H219.893C221.404 66.322 222.429 65.9313 222.96 65.1425C223.49 64.339 223.756 63.3586 223.756 62.1938V59.1862C223.756 58.0288 223.49 57.0558 222.96 56.267C222.429 55.4635 221.404 55.058 219.893 55.058H213.288ZM210.133 102.532H196.599C195.478 102.532 194.667 102.288 194.181 101.794C193.687 101.286 193.444 100.482 193.444 99.3766V42.4083C193.444 41.2878 193.687 40.4842 194.181 39.9903C194.667 39.5038 195.478 39.2532 196.599 39.2532H225.879C232.44 39.2532 236.966 40.6243 239.443 43.3518C241.934 46.0646 243.188 49.5956 243.188 53.9376V57.9772C243.188 60.4394 242.812 62.5329 242.067 64.2579C241.337 65.9902 240.069 67.2287 238.263 67.9732C241.426 68.3271 243.991 69.6245 245.959 71.8655C247.92 74.0917 248.908 77.0478 248.908 80.741V99.3766C248.908 100.482 248.65 101.286 248.141 101.794C247.647 102.288 246.844 102.532 245.723 102.532H232.101C230.995 102.532 230.191 102.288 229.683 101.794C229.189 101.286 228.946 100.482 228.946 99.3766V85.9306C228.946 84.6332 228.688 83.6823 228.179 83.0704C227.685 82.4438 226.83 82.1268 225.614 82.1268H213.288V99.3766C213.288 100.482 213.037 101.286 212.551 101.794C212.057 102.288 211.253 102.532 210.133 102.532Z" fill="#FF00FF"/>
<path d="M302.682 102.532H261.902C260.782 102.532 259.971 102.288 259.484 101.794C258.99 101.286 258.747 100.482 258.747 99.3766V42.4083C258.747 41.2878 258.99 40.4842 259.484 39.9903C259.971 39.5038 260.782 39.2532 261.902 39.2532H302.682C303.803 39.2532 304.606 39.5038 305.1 39.9903C305.609 40.4842 305.867 41.2878 305.867 42.4083V52.6991C305.867 53.8049 305.609 54.6084 305.1 55.117C304.606 55.6109 303.803 55.8542 302.682 55.8542H278.415V62.6361H295.576C296.674 62.6361 297.47 62.8868 297.964 63.3733C298.473 63.8672 298.731 64.6707 298.731 65.7912V75.1975C298.731 76.318 298.473 77.1288 297.964 77.6154C297.47 78.1093 296.674 78.3525 295.576 78.3525H278.415V85.9306H302.682C303.803 85.9306 304.606 86.1813 305.1 86.6678C305.609 87.1617 305.867 87.9652 305.867 89.0857V99.3766C305.867 100.482 305.609 101.286 305.1 101.794C304.606 102.288 303.803 102.532 302.682 102.532Z" fill="#FF00FF"/>
<path d="M346.098 102.532H331.856C330.75 102.532 329.947 102.288 329.438 101.794C328.944 101.286 328.701 100.482 328.701 99.3766V56.208H315.786C314.665 56.208 313.847 55.9648 313.338 55.4709C312.844 54.9622 312.601 54.1587 312.601 53.0529V42.4083C312.601 41.2878 312.844 40.4842 313.338 39.9903C313.847 39.5038 314.665 39.2532 315.786 39.2532H362.198C363.296 39.2532 364.092 39.5038 364.586 39.9903C365.095 40.4842 365.353 41.2878 365.353 42.4083V53.0529C365.353 54.1587 365.095 54.9622 364.586 55.4709C364.092 55.9648 363.296 56.208 362.198 56.208H349.283V99.3766C349.283 100.482 349.025 101.286 348.516 101.794C348.022 102.288 347.219 102.532 346.098 102.532Z" fill="#FF00FF"/>
<path d="M439.099 39.2532H452.192C453.312 39.2532 454.116 39.5038 454.61 39.9903C455.096 40.4842 455.347 41.2878 455.347 42.4083V76.5244C455.347 78.3968 455.266 80.1365 455.111 81.7435C454.971 83.3579 454.528 85.2451 453.784 87.405L449.39 99.3766C449.095 100.246 448.661 100.991 448.093 101.618C447.54 102.229 446.796 102.532 445.852 102.532H434.175C433.232 102.532 432.377 102.325 431.61 101.912C430.858 101.5 430.371 100.836 430.136 99.9073L426.096 85.5768C425.919 84.987 425.69 84.5963 425.418 84.3973C425.16 84.1835 424.857 84.073 424.504 84.073H423.707C423.354 84.073 423.037 84.1835 422.764 84.3973C422.506 84.5963 422.299 84.987 422.145 85.5768L417.987 99.9073C417.766 100.777 417.338 101.433 416.69 101.883C416.041 102.318 415.245 102.532 414.301 102.532H402.713C401.769 102.532 400.951 102.237 400.266 101.647C399.595 101.057 399.123 100.305 398.85 99.3766L394.457 87.228C393.69 85.0681 393.226 83.181 393.071 81.5666C392.931 79.9596 392.864 78.2198 392.864 76.3474V42.4083C392.864 41.2878 393.108 40.4842 393.602 39.9903C394.11 39.5038 394.914 39.2532 396.019 39.2532H409.554C410.674 39.2532 411.478 39.5038 411.972 39.9903C412.48 40.4842 412.738 41.2878 412.738 42.4083V74.7552L417.81 63.6682C418.282 62.6877 418.901 61.9874 419.668 61.5746C420.434 61.1618 421.363 60.9554 422.469 60.9554H426.184C427.283 60.9554 428.219 61.1618 428.986 61.5746C429.752 61.9874 430.371 62.6877 430.843 63.6682L435.944 74.7552V42.4083C435.944 41.2878 436.188 40.4842 436.682 39.9903C437.168 39.5038 437.979 39.2532 439.099 39.2532Z" fill="#FF00FF"/>
<path d="M520.305 85.9306C520.305 88.6287 519.907 91.0761 519.126 93.2728C518.337 95.4548 516.929 97.3272 514.909 98.8753C512.882 100.431 510.088 101.647 506.535 102.532C502.996 103.416 498.5 103.859 493.059 103.859C487.612 103.859 483.1 103.416 479.525 102.532C475.942 101.647 473.141 100.431 471.121 98.8753C469.094 97.3272 467.686 95.4548 466.905 93.2728C466.116 91.0761 465.725 88.6287 465.725 85.9306V55.9426C465.725 53.252 466.116 50.8046 466.905 48.6005C467.686 46.4037 469.094 44.5165 471.121 42.939C473.141 41.3467 475.942 40.123 479.525 39.2532C483.1 38.3686 487.612 37.9263 493.059 37.9263C498.5 37.9263 502.996 38.3686 506.535 39.2532C510.088 40.123 512.882 41.3467 514.909 42.939C516.929 44.5165 518.337 46.4037 519.126 48.6005C519.907 50.8046 520.305 53.252 520.305 55.9426V85.9306ZM485.688 82.7461C485.688 83.9255 486.115 84.9133 486.985 85.6947C487.87 86.4835 489.89 86.8742 493.059 86.8742C496.222 86.8742 498.234 86.4835 499.104 85.6947C499.989 84.9133 500.431 83.9255 500.431 82.7461V59.0977C500.431 57.9993 499.989 57.0558 499.104 56.267C498.234 55.4635 496.222 55.058 493.059 55.058C489.89 55.058 487.87 55.4635 486.985 56.267C486.115 57.0558 485.688 57.9993 485.688 59.0977V82.7461Z" fill="#FF00FF"/>
<path d="M551.319 55.058V66.322H557.924C559.435 66.322 560.46 65.9313 560.991 65.1425C561.521 64.339 561.787 63.3586 561.787 62.1938V59.1862C561.787 58.0288 561.521 57.0558 560.991 56.267C560.46 55.4635 559.435 55.058 557.924 55.058H551.319ZM548.164 102.532H534.63C533.509 102.532 532.698 102.288 532.212 101.794C531.718 101.286 531.474 100.482 531.474 99.3766V42.4083C531.474 41.2878 531.718 40.4842 532.212 39.9903C532.698 39.5038 533.509 39.2532 534.63 39.2532H563.91C570.471 39.2532 574.997 40.6243 577.474 43.3518C579.965 46.0646 581.218 49.5956 581.218 53.9376V57.9772C581.218 60.4394 580.843 62.5329 580.098 64.2579C579.368 65.9902 578.1 67.2287 576.294 67.9732C579.457 68.3271 582.022 69.6245 583.99 71.8655C585.951 74.0917 586.939 77.0478 586.939 80.741V99.3766C586.939 100.482 586.681 101.286 586.172 101.794C585.678 102.288 584.875 102.532 583.754 102.532H570.131C569.026 102.532 568.222 102.288 567.714 101.794C567.22 101.286 566.976 100.482 566.976 99.3766V85.9306C566.976 84.6332 566.718 83.6823 566.21 83.0704C565.716 82.4438 564.861 82.1268 563.644 82.1268H551.319V99.3766C551.319 100.482 551.068 101.286 550.582 101.794C550.088 102.288 549.284 102.532 548.164 102.532Z" fill="#FF00FF"/>
<path d="M629.567 102.532H599.933C598.812 102.532 598.002 102.288 597.515 101.794C597.021 101.286 596.778 100.482 596.778 99.3766V42.4083C596.778 41.2878 597.021 40.4842 597.515 39.9903C598.002 39.5038 598.812 39.2532 599.933 39.2532H629.567C636.88 39.2532 642.305 40.7201 645.844 43.6467C649.397 46.5806 651.181 51.0921 651.181 57.1811V84.6037C651.181 90.7001 649.397 95.2116 645.844 98.1381C642.305 101.072 636.88 102.532 629.567 102.532ZM616.711 56.0311V85.9306H627.179C628.594 85.9306 629.633 85.5768 630.304 84.8691C630.968 84.1614 631.307 83.0852 631.307 81.6256V60.2477C631.307 58.7955 630.968 57.734 630.304 57.0631C629.633 56.3776 628.594 56.0311 627.179 56.0311H616.711Z" fill="#FF00FF"/>
<path d="M57.5563 98.261H29.7798C28.6741 98.261 27.8706 98.0177 27.3619 97.5238C26.868 97.0152 26.6247 96.2117 26.6247 95.1059V84.8151C26.6247 83.6946 26.868 82.8911 27.3619 82.3972C27.8706 81.9106 28.6741 81.66 29.7798 81.66H53.4282C54.1948 81.66 54.7624 81.4167 55.1384 80.9228C55.5291 80.4142 55.7281 79.8023 55.7281 79.0946C55.7281 78.0921 55.5291 77.3697 55.1384 76.9126C54.7624 76.4408 54.1948 76.1755 53.4282 76.1165L40.2476 74.2588C36.1342 73.6691 32.8317 72.3274 30.3401 70.2192C27.8632 68.1182 26.6247 64.6019 26.6247 59.6629V50.4336C26.6247 45.4651 28.2318 41.6465 31.4606 38.9927C34.682 36.3242 39.1345 34.9825 44.818 34.9825H69.4394C70.5378 34.9825 71.334 35.2332 71.8279 35.7197C72.3365 36.2136 72.5945 37.0171 72.5945 38.1376V48.6054C72.5945 49.7112 72.3365 50.5147 71.8279 51.0233C71.334 51.5172 70.5378 51.7605 69.4394 51.7605H48.9462C48.1795 51.7605 47.5898 52.0185 47.177 52.5271C46.7789 53.021 46.5872 53.6403 46.5872 54.3848C46.5872 55.1514 46.7789 55.8002 47.177 56.3309C47.5898 56.8617 48.1795 57.1565 48.9462 57.2155L62.0383 58.9552C66.1443 59.545 69.4542 60.9014 71.9753 63.0244C74.489 65.1327 75.7496 68.6416 75.7496 73.5511V82.7805C75.7496 87.7785 74.1278 91.6118 70.8843 94.2803C67.6407 96.9341 63.1956 98.261 57.5563 98.261Z" fill="#00FFFF"/>
<path d="M129.282 98.261H88.5016C87.3811 98.261 86.5702 98.0177 86.0837 97.5238C85.5898 97.0152 85.3465 96.2117 85.3465 95.1059V38.1376C85.3465 37.0171 85.5898 36.2136 86.0837 35.7197C86.5702 35.2332 87.3811 34.9825 88.5016 34.9825H129.282C130.402 34.9825 131.206 35.2332 131.7 35.7197C132.208 36.2136 132.466 37.0171 132.466 38.1376V48.4285C132.466 49.5342 132.208 50.3377 131.7 50.8464C131.206 51.3403 130.402 51.5836 129.282 51.5836H105.014V58.3655H122.175C123.274 58.3655 124.07 58.6161 124.564 59.1027C125.072 59.5966 125.33 60.4001 125.33 61.5206V70.9268C125.33 72.0473 125.072 72.8582 124.564 73.3447C124.07 73.8386 123.274 74.0819 122.175 74.0819H105.014V81.66H129.282C130.402 81.66 131.206 81.9106 131.7 82.3972C132.208 82.8911 132.466 83.6946 132.466 84.8151V95.1059C132.466 96.2117 132.208 97.0152 131.7 97.5238C131.206 98.0177 130.402 98.261 129.282 98.261Z" fill="#00FFFF"/>
<path d="M184.935 98.261H163.468C156.156 98.261 150.715 96.8014 147.162 93.8675C143.624 90.9409 141.855 86.4295 141.855 80.3331V52.9989C141.855 46.9099 143.624 42.3837 147.162 39.435C150.715 36.4716 156.156 34.9825 163.468 34.9825H184.935C186.033 34.9825 186.829 35.2332 187.323 35.7197C187.832 36.2136 188.09 37.0171 188.09 38.1376V48.7823C188.09 49.8881 187.832 50.6916 187.323 51.2002C186.829 51.6941 186.033 51.9374 184.935 51.9374H167.243C165.429 51.9374 164.088 52.3134 163.203 53.0579C162.333 53.7877 161.906 54.8787 161.906 56.3309V77.2665C161.906 78.7261 162.333 79.795 163.203 80.4805C164.088 81.1513 165.429 81.4831 167.243 81.4831H184.935C186.033 81.4831 186.829 81.7337 187.323 82.2202C187.832 82.7141 188.09 83.5177 188.09 84.6381V95.1059C188.09 96.2117 187.832 97.0152 187.323 97.5238C186.829 98.0177 186.033 98.261 184.935 98.261Z" fill="#00FFFF"/>
<path d="M217.868 50.7873V62.0512H224.473C225.984 62.0512 227.009 61.6605 227.54 60.8717C228.07 60.0682 228.336 59.0878 228.336 57.9231V54.9154C228.336 53.7581 228.07 52.785 227.54 51.9962C227.009 51.1927 225.984 50.7873 224.473 50.7873H217.868ZM214.713 98.2609H201.179C200.058 98.2609 199.247 98.0176 198.761 97.5237C198.267 97.0151 198.024 96.2116 198.024 95.1058V38.1375C198.024 37.017 198.267 36.2135 198.761 35.7196C199.247 35.2331 200.058 34.9824 201.179 34.9824H230.459C237.02 34.9824 241.546 36.3536 244.023 39.0811C246.514 41.7938 247.768 45.3249 247.768 49.6668V53.7065C247.768 56.1686 247.392 58.2622 246.647 59.9871C245.917 61.7195 244.649 62.9579 242.843 63.7025C246.006 64.0563 248.571 65.3537 250.539 67.5947C252.5 69.821 253.488 72.777 253.488 76.4702V95.1058C253.488 96.2116 253.23 97.0151 252.721 97.5237C252.227 98.0176 251.424 98.2609 250.303 98.2609H236.681C235.575 98.2609 234.771 98.0176 234.263 97.5237C233.769 97.0151 233.525 96.2116 233.525 95.1058V81.6599C233.525 80.3625 233.267 79.4115 232.759 78.7997C232.265 78.1731 231.41 77.8561 230.193 77.8561H217.868V95.1058C217.868 96.2116 217.617 97.0151 217.131 97.5237C216.637 98.0176 215.833 98.2609 214.713 98.2609Z" fill="#00FFFF"/>
<path d="M307.262 98.2609H266.482C265.362 98.2609 264.551 98.0176 264.064 97.5237C263.57 97.0151 263.327 96.2116 263.327 95.1058V38.1375C263.327 37.017 263.57 36.2135 264.064 35.7196C264.551 35.2331 265.362 34.9824 266.482 34.9824H307.262C308.383 34.9824 309.186 35.2331 309.68 35.7196C310.189 36.2135 310.447 37.017 310.447 38.1375V48.4284C310.447 49.5341 310.189 50.3376 309.68 50.8463C309.186 51.3402 308.383 51.5834 307.262 51.5834H282.995V58.3654H300.156C301.254 58.3654 302.05 58.616 302.544 59.1025C303.053 59.5964 303.311 60.4 303.311 61.5205V70.9267C303.311 72.0472 303.053 72.8581 302.544 73.3446C302.05 73.8385 301.254 74.0818 300.156 74.0818H282.995V81.6599H307.262C308.383 81.6599 309.186 81.9105 309.68 82.397C310.189 82.8909 310.447 83.6945 310.447 84.8149V95.1058C310.447 96.2116 310.189 97.0151 309.68 97.5237C309.186 98.0176 308.383 98.2609 307.262 98.2609Z" fill="#00FFFF"/>
<path d="M350.678 98.261H336.436C335.33 98.261 334.527 98.0177 334.018 97.5238C333.524 97.0152 333.281 96.2117 333.281 95.1059V51.9374H320.366C319.245 51.9374 318.427 51.6941 317.918 51.2002C317.424 50.6916 317.181 49.8881 317.181 48.7823V38.1376C317.181 37.0171 317.424 36.2136 317.918 35.7197C318.427 35.2332 319.245 34.9825 320.366 34.9825H366.778C367.876 34.9825 368.672 35.2332 369.166 35.7197C369.675 36.2136 369.933 37.0171 369.933 38.1376V48.7823C369.933 49.8881 369.675 50.6916 369.166 51.2002C368.672 51.6941 367.876 51.9374 366.778 51.9374H353.863V95.1059C353.863 96.2117 353.605 97.0152 353.096 97.5238C352.602 98.0177 351.798 98.261 350.678 98.261Z" fill="#00FFFF"/>
<path d="M443.679 34.9825H456.772C457.892 34.9825 458.696 35.2332 459.189 35.7197C459.676 36.2136 459.927 37.0171 459.927 38.1376V72.2537C459.927 74.1261 459.846 75.8659 459.691 77.4729C459.551 79.0873 459.108 80.9744 458.364 83.1343L453.97 95.1059C453.675 95.9758 453.24 96.7203 452.673 97.3469C452.12 97.9588 451.375 98.261 450.432 98.261H438.755C437.812 98.261 436.956 98.0546 436.19 97.6418C435.438 97.229 434.951 96.5655 434.715 95.6367L430.676 81.3062C430.499 80.7164 430.27 80.3257 429.998 80.1267C429.74 79.9129 429.437 79.8023 429.084 79.8023H428.287C427.934 79.8023 427.617 79.9129 427.344 80.1267C427.086 80.3257 426.879 80.7164 426.725 81.3062L422.567 95.6367C422.346 96.5065 421.918 97.1626 421.27 97.6123C420.621 98.0472 419.825 98.261 418.881 98.261H407.293C406.349 98.261 405.531 97.9661 404.845 97.3764C404.175 96.7867 403.703 96.0348 403.43 95.1059L399.037 82.9574C398.27 80.7975 397.805 78.9104 397.651 77.296C397.511 75.6889 397.444 73.9492 397.444 72.0768V38.1376C397.444 37.0171 397.688 36.2136 398.181 35.7197C398.69 35.2332 399.494 34.9825 400.599 34.9825H414.134C415.254 34.9825 416.058 35.2332 416.552 35.7197C417.06 36.2136 417.318 37.0171 417.318 38.1376V70.4845L422.39 59.3975C422.862 58.4171 423.481 57.7168 424.248 57.304C425.014 56.8912 425.943 56.6848 427.049 56.6848H430.764C431.863 56.6848 432.799 56.8912 433.565 57.304C434.332 57.7168 434.951 58.4171 435.423 59.3975L440.524 70.4845V38.1376C440.524 37.0171 440.768 36.2136 441.262 35.7197C441.748 35.2332 442.559 34.9825 443.679 34.9825Z" fill="#00FFFF"/>
<path d="M524.885 81.66C524.885 84.358 524.487 86.8054 523.706 89.0022C522.917 91.1842 521.509 93.0566 519.489 94.6047C517.462 96.1601 514.668 97.3764 511.115 98.261C507.576 99.1456 503.08 99.5879 497.639 99.5879C492.192 99.5879 487.68 99.1456 484.105 98.261C480.522 97.3764 477.721 96.1601 475.701 94.6047C473.674 93.0566 472.266 91.1842 471.485 89.0022C470.696 86.8054 470.305 84.358 470.305 81.66V51.672C470.305 48.9814 470.696 46.534 471.485 44.3298C472.266 42.1331 473.674 40.2459 475.701 38.6684C477.721 37.0761 480.522 35.8524 484.105 34.9825C487.68 34.0979 492.192 33.6556 497.639 33.6556C503.08 33.6556 507.576 34.0979 511.115 34.9825C514.668 35.8524 517.462 37.0761 519.489 38.6684C521.509 40.2459 522.917 42.1331 523.706 44.3298C524.487 46.534 524.885 48.9814 524.885 51.672V81.66ZM490.268 78.4754C490.268 79.6549 490.695 80.6427 491.565 81.4241C492.45 82.2129 494.47 82.6036 497.639 82.6036C500.802 82.6036 502.814 82.2129 503.684 81.4241C504.569 80.6427 505.011 79.6549 505.011 78.4754V54.8271C505.011 53.7287 504.569 52.7851 503.684 51.9964C502.814 51.1929 500.802 50.7874 497.639 50.7874C494.47 50.7874 492.45 51.1929 491.565 51.9964C490.695 52.7851 490.268 53.7287 490.268 54.8271V78.4754Z" fill="#00FFFF"/>
<path d="M555.899 50.7873V62.0512H562.504C564.015 62.0512 565.04 61.6605 565.571 60.8717C566.101 60.0682 566.367 59.0878 566.367 57.9231V54.9154C566.367 53.7581 566.101 52.785 565.571 51.9962C565.04 51.1927 564.015 50.7873 562.504 50.7873H555.899ZM552.744 98.2609H539.209C538.089 98.2609 537.278 98.0176 536.791 97.5237C536.298 97.0151 536.054 96.2116 536.054 95.1058V38.1375C536.054 37.017 536.298 36.2135 536.791 35.7196C537.278 35.2331 538.089 34.9824 539.209 34.9824H568.49C575.05 34.9824 579.577 36.3536 582.054 39.0811C584.545 41.7938 585.798 45.3249 585.798 49.6668V53.7065C585.798 56.1686 585.422 58.2622 584.678 59.9871C583.948 61.7195 582.68 62.9579 580.874 63.7025C584.037 64.0563 586.602 65.3537 588.57 67.5947C590.531 69.821 591.519 72.777 591.519 76.4702V95.1058C591.519 96.2116 591.261 97.0151 590.752 97.5237C590.258 98.0176 589.455 98.2609 588.334 98.2609H574.711C573.606 98.2609 572.802 98.0176 572.293 97.5237C571.8 97.0151 571.556 96.2116 571.556 95.1058V81.6599C571.556 80.3625 571.298 79.4115 570.79 78.7997C570.296 78.1731 569.441 77.8561 568.224 77.8561H555.899V95.1058C555.899 96.2116 555.648 97.0151 555.162 97.5237C554.668 98.0176 553.864 98.2609 552.744 98.2609Z" fill="#00FFFF"/>
<path d="M634.147 98.2609H604.513C603.392 98.2609 602.581 98.0176 602.095 97.5237C601.601 97.0151 601.358 96.2116 601.358 95.1058V38.1375C601.358 37.017 601.601 36.2135 602.095 35.7196C602.581 35.2331 603.392 34.9824 604.513 34.9824H634.147C641.46 34.9824 646.885 36.4494 650.424 39.3759C653.977 42.3099 655.761 46.8213 655.761 52.9103V80.333C655.761 86.4293 653.977 90.9408 650.424 93.8674C646.885 96.8013 641.46 98.2609 634.147 98.2609ZM621.291 51.7604V81.6599H631.759C633.174 81.6599 634.213 81.306 634.884 80.5983C635.548 79.8907 635.887 78.8144 635.887 77.3548V55.977C635.887 54.5247 635.548 53.4632 634.884 52.7924C634.213 52.1068 633.174 51.7604 631.759 51.7604H621.291Z" fill="#00FFFF"/>
<path d="M55.2664 100.397H27.4899C26.3841 100.397 25.5806 100.153 25.072 99.6593C24.5781 99.1507 24.3348 98.3472 24.3348 97.2414V86.9506C24.3348 85.8301 24.5781 85.0266 25.072 84.5327C25.5806 84.0461 26.3841 83.7955 27.4899 83.7955H51.1382C51.9049 83.7955 52.4725 83.5522 52.8484 83.0583C53.2391 82.5497 53.4382 81.9378 53.4382 81.2301C53.4382 80.2276 53.2391 79.5052 52.8484 79.0481C52.4725 78.5763 51.9049 78.311 51.1382 78.252L37.9577 76.3943C33.8443 75.8046 30.5418 74.4629 28.0501 72.3546C25.5732 70.2537 24.3348 66.7374 24.3348 61.7984V52.5691C24.3348 47.6006 25.9418 43.782 29.1706 41.1282C32.392 38.4597 36.8445 37.118 42.5281 37.118H67.1495C68.2479 37.118 69.044 37.3687 69.5379 37.8552C70.0466 38.3491 70.3046 39.1526 70.3046 40.2731V50.7409C70.3046 51.8466 70.0466 52.6502 69.5379 53.1588C69.044 53.6527 68.2479 53.896 67.1495 53.896H46.6562C45.8896 53.896 45.2999 54.154 44.887 54.6626C44.489 55.1565 44.2973 55.7758 44.2973 56.5203C44.2973 57.2869 44.489 57.9357 44.887 58.4664C45.2999 58.9972 45.8896 59.292 46.6562 59.351L59.7483 61.0907C63.8544 61.6805 67.1642 63.0369 69.6854 65.1599C72.1991 67.2682 73.4597 70.7771 73.4597 75.6866V84.916C73.4597 89.914 71.8379 93.7473 68.5943 96.4158C65.3508 99.0696 60.9057 100.397 55.2664 100.397Z" fill="#8C52FF"/>
<path d="M126.992 100.397H86.2117C85.0912 100.397 84.2803 100.153 83.7937 99.6593C83.2998 99.1507 83.0566 98.3472 83.0566 97.2414V40.2731C83.0566 39.1526 83.2998 38.3491 83.7937 37.8552C84.2803 37.3687 85.0912 37.118 86.2117 37.118H126.992C128.112 37.118 128.916 37.3687 129.41 37.8552C129.918 38.3491 130.176 39.1526 130.176 40.2731V50.564C130.176 51.6697 129.918 52.4732 129.41 52.9819C128.916 53.4758 128.112 53.7191 126.992 53.7191H102.724V60.501H119.885C120.984 60.501 121.78 60.7516 122.274 61.2382C122.783 61.7321 123.041 62.5356 123.041 63.6561V73.0623C123.041 74.1828 122.783 74.9937 122.274 75.4802C121.78 75.9741 120.984 76.2174 119.885 76.2174H102.724V83.7955H126.992C128.112 83.7955 128.916 84.0461 129.41 84.5327C129.918 85.0266 130.176 85.8301 130.176 86.9506V97.2414C130.176 98.3472 129.918 99.1507 129.41 99.6593C128.916 100.153 128.112 100.397 126.992 100.397Z" fill="#8C52FF"/>
<path d="M182.645 100.397H161.178C153.866 100.397 148.425 98.9369 144.872 96.003C141.334 93.0764 139.565 88.565 139.565 82.4686V55.1344C139.565 49.0454 141.334 44.5192 144.872 41.5705C148.425 38.6071 153.866 37.118 161.178 37.118H182.645C183.743 37.118 184.539 37.3687 185.033 37.8552C185.542 38.3491 185.8 39.1526 185.8 40.2731V50.9178C185.8 52.0236 185.542 52.8271 185.033 53.3357C184.539 53.8296 183.743 54.0729 182.645 54.0729H164.953C163.139 54.0729 161.798 54.4489 160.913 55.1934C160.043 55.9232 159.615 57.0142 159.615 58.4664V79.402C159.615 80.8616 160.043 81.9305 160.913 82.616C161.798 83.2868 163.139 83.6186 164.953 83.6186H182.645C183.743 83.6186 184.539 83.8692 185.033 84.3557C185.542 84.8496 185.8 85.6532 185.8 86.7736V97.2414C185.8 98.3472 185.542 99.1507 185.033 99.6593C184.539 100.153 183.743 100.397 182.645 100.397Z" fill="#8C52FF"/>
<path d="M215.578 52.9228V64.1867H222.183C223.694 64.1867 224.719 63.796 225.25 63.0072C225.78 62.2037 226.046 61.2233 226.046 60.0586V57.0509C226.046 55.8936 225.78 54.9205 225.25 54.1317C224.719 53.3282 223.694 52.9228 222.183 52.9228H215.578ZM212.423 100.396H198.889C197.768 100.396 196.957 100.153 196.471 99.6592C195.977 99.1506 195.733 98.3471 195.733 97.2413V40.273C195.733 39.1525 195.977 38.349 196.471 37.8551C196.957 37.3686 197.768 37.1179 198.889 37.1179H228.169C234.73 37.1179 239.256 38.4891 241.733 41.2166C244.224 43.9293 245.478 47.4604 245.478 51.8023V55.842C245.478 58.3041 245.102 60.3977 244.357 62.1226C243.627 63.855 242.359 65.0934 240.553 65.838C243.716 66.1918 246.281 67.4892 248.249 69.7302C250.21 71.9565 251.198 74.9125 251.198 78.6057V97.2413C251.198 98.3471 250.94 99.1506 250.431 99.6592C249.937 100.153 249.134 100.396 248.013 100.396H234.391C233.285 100.396 232.481 100.153 231.973 99.6592C231.479 99.1506 231.235 98.3471 231.235 97.2413V83.7954C231.235 82.498 230.977 81.547 230.469 80.9352C229.975 80.3086 229.12 79.9916 227.903 79.9916H215.578V97.2413C215.578 98.3471 215.327 99.1506 214.841 99.6592C214.347 100.153 213.543 100.396 212.423 100.396Z" fill="#8C52FF"/>
<path d="M304.972 100.396H264.192C263.071 100.396 262.261 100.153 261.774 99.6592C261.28 99.1506 261.037 98.3471 261.037 97.2413V40.273C261.037 39.1525 261.28 38.349 261.774 37.8551C262.261 37.3686 263.071 37.1179 264.192 37.1179H304.972C306.093 37.1179 306.896 37.3686 307.39 37.8551C307.899 38.349 308.157 39.1525 308.157 40.273V50.5639C308.157 51.6696 307.899 52.4731 307.39 52.9818C306.896 53.4757 306.093 53.7189 304.972 53.7189H280.705V60.5009H297.866C298.964 60.5009 299.76 60.7515 300.254 61.238C300.763 61.7319 301.021 62.5355 301.021 63.656V73.0622C301.021 74.1827 300.763 74.9936 300.254 75.4801C299.76 75.974 298.964 76.2173 297.866 76.2173H280.705V83.7954H304.972C306.093 83.7954 306.896 84.046 307.39 84.5325C307.899 85.0264 308.157 85.8299 308.157 86.9504V97.2413C308.157 98.3471 307.899 99.1506 307.39 99.6592C306.896 100.153 306.093 100.396 304.972 100.396Z" fill="#8C52FF"/>
<path d="M348.388 100.397H334.146C333.04 100.397 332.237 100.153 331.728 99.6593C331.234 99.1507 330.991 98.3472 330.991 97.2414V54.0729H318.076C316.955 54.0729 316.137 53.8296 315.628 53.3357C315.134 52.8271 314.891 52.0236 314.891 50.9178V40.2731C314.891 39.1526 315.134 38.3491 315.628 37.8552C316.137 37.3687 316.955 37.118 318.076 37.118H364.488C365.586 37.118 366.382 37.3687 366.876 37.8552C367.385 38.3491 367.643 39.1526 367.643 40.2731V50.9178C367.643 52.0236 367.385 52.8271 366.876 53.3357C366.382 53.8296 365.586 54.0729 364.488 54.0729H351.573V97.2414C351.573 98.3472 351.315 99.1507 350.806 99.6593C350.312 100.153 349.509 100.397 348.388 100.397Z" fill="#8C52FF"/>
<path d="M441.389 37.118H454.482C455.602 37.118 456.406 37.3687 456.899 37.8552C457.386 38.3491 457.637 39.1526 457.637 40.2731V74.3892C457.637 76.2616 457.556 78.0014 457.401 79.6084C457.261 81.2228 456.818 83.1099 456.074 85.2698L451.68 97.2414C451.385 98.1113 450.951 98.8558 450.383 99.4824C449.83 100.094 449.085 100.397 448.142 100.397H436.465C435.522 100.397 434.666 100.19 433.9 99.7773C433.148 99.3645 432.661 98.701 432.425 97.7722L428.386 83.4416C428.209 82.8519 427.98 82.4612 427.708 82.2622C427.45 82.0484 427.147 81.9378 426.794 81.9378H425.997C425.644 81.9378 425.327 82.0484 425.054 82.2622C424.796 82.4612 424.589 82.8519 424.435 83.4416L420.277 97.7722C420.056 98.642 419.628 99.2981 418.98 99.7478C418.331 100.183 417.535 100.397 416.591 100.397H405.003C404.059 100.397 403.241 100.102 402.555 99.5119C401.885 98.9222 401.413 98.1703 401.14 97.2414L396.747 85.0929C395.98 82.933 395.516 81.0459 395.361 79.4315C395.221 77.8244 395.154 76.0847 395.154 74.2123V40.2731C395.154 39.1526 395.398 38.3491 395.891 37.8552C396.4 37.3687 397.204 37.118 398.309 37.118H411.844C412.964 37.118 413.768 37.3687 414.262 37.8552C414.77 38.3491 415.028 39.1526 415.028 40.2731V72.62L420.1 61.533C420.572 60.5526 421.191 59.8523 421.958 59.4395C422.724 59.0267 423.653 58.8203 424.759 58.8203H428.474C429.573 58.8203 430.509 59.0267 431.276 59.4395C432.042 59.8523 432.661 60.5526 433.133 61.533L438.234 72.62V40.2731C438.234 39.1526 438.478 38.3491 438.972 37.8552C439.458 37.3687 440.269 37.118 441.389 37.118Z" fill="#8C52FF"/>
<path d="M522.595 83.7955C522.595 86.4935 522.197 88.9409 521.416 91.1377C520.627 93.3197 519.219 95.1921 517.199 96.7402C515.172 98.2956 512.378 99.5119 508.825 100.397C505.286 101.281 500.79 101.723 495.349 101.723C489.902 101.723 485.39 101.281 481.815 100.397C478.232 99.5119 475.431 98.2956 473.411 96.7402C471.384 95.1921 469.976 93.3197 469.195 91.1377C468.406 88.9409 468.015 86.4935 468.015 83.7955V53.8075C468.015 51.1169 468.406 48.6695 469.195 46.4653C469.976 44.2686 471.384 42.3814 473.411 40.8039C475.431 39.2116 478.232 37.9879 481.815 37.118C485.39 36.2334 489.902 35.7911 495.349 35.7911C500.79 35.7911 505.286 36.2334 508.825 37.118C512.378 37.9879 515.172 39.2116 517.199 40.8039C519.219 42.3814 520.627 44.2686 521.416 46.4653C522.197 48.6695 522.595 51.1169 522.595 53.8075V83.7955ZM487.978 80.6109C487.978 81.7904 488.405 82.7782 489.275 83.5596C490.16 84.3484 492.18 84.7391 495.349 84.7391C498.512 84.7391 500.524 84.3484 501.394 83.5596C502.279 82.7782 502.721 81.7904 502.721 80.6109V56.9626C502.721 55.8642 502.279 54.9206 501.394 54.1319C500.524 53.3284 498.512 52.9229 495.349 52.9229C492.18 52.9229 490.16 53.3284 489.275 54.1319C488.405 54.9206 487.978 55.8642 487.978 56.9626V80.6109Z" fill="#8C52FF"/>
<path d="M553.609 52.9228V64.1867H560.214C561.725 64.1867 562.75 63.796 563.281 63.0072C563.811 62.2037 564.077 61.2233 564.077 60.0586V57.0509C564.077 55.8936 563.811 54.9205 563.281 54.1317C562.75 53.3282 561.725 52.9228 560.214 52.9228H553.609ZM550.454 100.396H536.919C535.799 100.396 534.988 100.153 534.502 99.6592C534.008 99.1506 533.764 98.3471 533.764 97.2413V40.273C533.764 39.1525 534.008 38.349 534.502 37.8551C534.988 37.3686 535.799 37.1179 536.919 37.1179H566.2C572.761 37.1179 577.287 38.4891 579.764 41.2166C582.255 43.9293 583.508 47.4604 583.508 51.8023V55.842C583.508 58.3041 583.132 60.3977 582.388 62.1226C581.658 63.855 580.39 65.0934 578.584 65.838C581.747 66.1918 584.312 67.4892 586.28 69.7302C588.241 71.9565 589.229 74.9125 589.229 78.6057V97.2413C589.229 98.3471 588.971 99.1506 588.462 99.6592C587.968 100.153 587.165 100.396 586.044 100.396H572.421C571.316 100.396 570.512 100.153 570.003 99.6592C569.51 99.1506 569.266 98.3471 569.266 97.2413V83.7954C569.266 82.498 569.008 81.547 568.5 80.9352C568.006 80.3086 567.151 79.9916 565.934 79.9916H553.609V97.2413C553.609 98.3471 553.358 99.1506 552.872 99.6592C552.378 100.153 551.574 100.396 550.454 100.396Z" fill="#8C52FF"/>
<path d="M631.857 100.396H602.223C601.102 100.396 600.292 100.153 599.805 99.6592C599.311 99.1506 599.068 98.3471 599.068 97.2413V40.273C599.068 39.1525 599.311 38.349 599.805 37.8551C600.292 37.3686 601.102 37.1179 602.223 37.1179H631.857C639.17 37.1179 644.595 38.5849 648.134 41.5114C651.687 44.4454 653.471 48.9568 653.471 55.0458V82.4685C653.471 88.5648 651.687 93.0763 648.134 96.0029C644.595 98.9368 639.17 100.396 631.857 100.396ZM619.001 53.8959V83.7954H629.469C630.884 83.7954 631.923 83.4415 632.594 82.7338C633.258 82.0262 633.597 80.9499 633.597 79.4903V58.1125C633.597 56.6602 633.258 55.5987 632.594 54.9279C631.923 54.2423 630.884 53.8959 629.469 53.8959H619.001Z" fill="#8C52FF"/>
<path d="M51.4068 108.358H23.6304C22.5246 108.358 21.7211 108.115 21.2125 107.621C20.7186 107.112 20.4753 106.309 20.4753 105.203V94.9124C20.4753 93.7919 20.7186 92.9884 21.2125 92.4944C21.7211 92.0079 22.5246 91.7573 23.6304 91.7573H47.2787C48.0454 91.7573 48.613 91.514 48.9889 91.0201C49.3796 90.5115 49.5787 89.8996 49.5787 89.1919C49.5787 88.1894 49.3796 87.467 48.9889 87.0099C48.613 86.5381 48.0454 86.2728 47.2787 86.2138L34.0982 84.3561C29.9848 83.7664 26.6822 82.4247 24.1906 80.3164C21.7137 78.2155 20.4753 74.6992 20.4753 69.7602V60.5309C20.4753 55.5624 22.0823 51.7438 25.3111 49.09C28.5325 46.4215 32.985 45.0798 38.6686 45.0798H63.29C64.3884 45.0798 65.1845 45.3305 65.6784 45.817C66.1871 46.3109 66.4451 47.1144 66.4451 48.2349V58.7027C66.4451 59.8084 66.1871 60.612 65.6784 61.1206C65.1845 61.6145 64.3884 61.8578 63.29 61.8578H42.7967C42.0301 61.8578 41.4403 62.1158 41.0275 62.6244C40.6295 63.1183 40.4378 63.7375 40.4378 64.4821C40.4378 65.2487 40.6295 65.8974 41.0275 66.4282C41.4403 66.959 42.0301 67.2538 42.7967 67.3128L55.8888 69.0525C59.9948 69.6423 63.3047 70.9986 65.8258 73.1217C68.3396 75.23 69.6001 78.7389 69.6001 83.6484V92.8778C69.6001 97.8758 67.9784 101.709 64.7348 104.378C61.4913 107.031 57.0462 108.358 51.4068 108.358Z" fill="#FF00FF"/>
<path d="M123.132 108.358H82.3521C81.2316 108.358 80.4208 108.115 79.9342 107.621C79.4403 107.112 79.1971 106.309 79.1971 105.203V48.2349C79.1971 47.1144 79.4403 46.3109 79.9342 45.817C80.4208 45.3305 81.2316 45.0798 82.3521 45.0798H123.132C124.253 45.0798 125.056 45.3305 125.55 45.817C126.059 46.3109 126.317 47.1144 126.317 48.2349V58.5258C126.317 59.6315 126.059 60.435 125.55 60.9437C125.056 61.4376 124.253 61.6808 123.132 61.6808H98.8647V68.4628H116.026C117.124 68.4628 117.92 68.7134 118.414 69.2C118.923 69.6939 119.181 70.4974 119.181 71.6179V81.0241C119.181 82.1446 118.923 82.9555 118.414 83.442C117.92 83.9359 117.124 84.1792 116.026 84.1792H98.8647V91.7573H123.132C124.253 91.7573 125.056 92.0079 125.55 92.4944C126.059 92.9884 126.317 93.7919 126.317 94.9124V105.203C126.317 106.309 126.059 107.112 125.55 107.621C125.056 108.115 124.253 108.358 123.132 108.358Z" fill="#FF00FF"/>
<path d="M178.785 108.358H157.319C150.006 108.358 144.566 106.899 141.013 103.965C137.474 101.038 135.705 96.5268 135.705 90.4304V63.0962C135.705 57.0072 137.474 52.481 141.013 49.5323C144.566 46.5689 150.006 45.0798 157.319 45.0798H178.785C179.884 45.0798 180.68 45.3305 181.174 45.817C181.682 46.3109 181.94 47.1144 181.94 48.2349V58.8796C181.94 59.9854 181.682 60.7889 181.174 61.2975C180.68 61.7914 179.884 62.0347 178.785 62.0347H161.093C159.28 62.0347 157.938 62.4106 157.053 63.1552C156.184 63.885 155.756 64.976 155.756 66.4282V87.3638C155.756 88.8234 156.184 89.8922 157.053 90.5778C157.938 91.2486 159.28 91.5804 161.093 91.5804H178.785C179.884 91.5804 180.68 91.831 181.174 92.3175C181.682 92.8114 181.94 93.6149 181.94 94.7354V105.203C181.94 106.309 181.682 107.112 181.174 107.621C180.68 108.115 179.884 108.358 178.785 108.358Z" fill="#FF00FF"/>
<path d="M211.719 60.8847V72.1486H218.324C219.835 72.1486 220.859 71.7579 221.39 70.9692C221.921 70.1656 222.186 69.1852 222.186 68.0205V65.0128C222.186 63.8555 221.921 62.8824 221.39 62.0937C220.859 61.2901 219.835 60.8847 218.324 60.8847H211.719ZM208.564 108.358H195.029C193.909 108.358 193.098 108.115 192.611 107.621C192.117 107.112 191.874 106.309 191.874 105.203V48.2349C191.874 47.1144 192.117 46.3109 192.611 45.817C193.098 45.3305 193.909 45.0798 195.029 45.0798H224.309C230.87 45.0798 235.396 46.451 237.873 49.1785C240.365 51.8913 241.618 55.4223 241.618 59.7642V63.8039C241.618 66.266 241.242 68.3596 240.498 70.0846C239.768 71.8169 238.5 73.0553 236.694 73.7999C239.856 74.1537 242.422 75.4511 244.39 77.6921C246.351 79.9184 247.339 82.8744 247.339 86.5676V105.203C247.339 106.309 247.081 107.112 246.572 107.621C246.078 108.115 245.274 108.358 244.154 108.358H230.531C229.425 108.358 228.622 108.115 228.113 107.621C227.619 107.112 227.376 106.309 227.376 105.203V91.7573C227.376 90.4599 227.118 89.5089 226.609 88.8971C226.115 88.2705 225.26 87.9535 224.044 87.9535H211.719V105.203C211.719 106.309 211.468 107.112 210.981 107.621C210.488 108.115 209.684 108.358 208.564 108.358Z" fill="#FF00FF"/>
<path d="M301.113 108.358H260.333C259.212 108.358 258.401 108.115 257.915 107.621C257.421 107.112 257.177 106.309 257.177 105.203V48.2349C257.177 47.1144 257.421 46.3109 257.915 45.817C258.401 45.3305 259.212 45.0798 260.333 45.0798H301.113C302.233 45.0798 303.037 45.3305 303.531 45.817C304.039 46.3109 304.297 47.1144 304.297 48.2349V58.5258C304.297 59.6315 304.039 60.435 303.531 60.9437C303.037 61.4376 302.233 61.6808 301.113 61.6808H276.845V68.4628H294.006C295.105 68.4628 295.901 68.7134 296.395 69.2C296.903 69.6939 297.161 70.4974 297.161 71.6179V81.0241C297.161 82.1446 296.903 82.9555 296.395 83.442C295.901 83.9359 295.105 84.1792 294.006 84.1792H276.845V91.7573H301.113C302.233 91.7573 303.037 92.0079 303.531 92.4944C304.039 92.9884 304.297 93.7919 304.297 94.9124V105.203C304.297 106.309 304.039 107.112 303.531 107.621C303.037 108.115 302.233 108.358 301.113 108.358Z" fill="#FF00FF"/>
<path d="M344.529 108.358H330.287C329.181 108.358 328.377 108.115 327.869 107.621C327.375 107.112 327.131 106.309 327.131 105.203V62.0347H314.216C313.096 62.0347 312.278 61.7914 311.769 61.2975C311.275 60.7889 311.032 59.9854 311.032 58.8796V48.2349C311.032 47.1144 311.275 46.3109 311.769 45.817C312.278 45.3305 313.096 45.0798 314.216 45.0798H360.628C361.727 45.0798 362.523 45.3305 363.017 45.817C363.525 46.3109 363.783 47.1144 363.783 48.2349V58.8796C363.783 59.9854 363.525 60.7889 363.017 61.2975C362.523 61.7914 361.727 62.0347 360.628 62.0347H347.713V105.203C347.713 106.309 347.455 107.112 346.947 107.621C346.453 108.115 345.649 108.358 344.529 108.358Z" fill="#FF00FF"/>
<path d="M437.53 45.0798H450.622C451.743 45.0798 452.546 45.3305 453.04 45.817C453.527 46.3109 453.777 47.1144 453.777 48.2349V82.351C453.777 84.2234 453.696 85.9631 453.541 87.5702C453.401 89.1846 452.959 91.0717 452.214 93.2316L447.821 105.203C447.526 106.073 447.091 106.818 446.523 107.444C445.971 108.056 445.226 108.358 444.282 108.358H432.606C431.662 108.358 430.807 108.152 430.04 107.739C429.288 107.326 428.802 106.663 428.566 105.734L424.526 91.4034C424.349 90.8137 424.121 90.423 423.848 90.224C423.59 90.0102 423.288 89.8996 422.934 89.8996H422.138C421.784 89.8996 421.467 90.0102 421.194 90.224C420.936 90.423 420.73 90.8137 420.575 91.4034L416.417 105.734C416.196 106.604 415.769 107.26 415.12 107.71C414.471 108.145 413.675 108.358 412.732 108.358H401.143C400.2 108.358 399.382 108.063 398.696 107.474C398.025 106.884 397.553 106.132 397.281 105.203L392.887 93.0547C392.12 90.8948 391.656 89.0076 391.501 87.3932C391.361 85.7862 391.295 84.0465 391.295 82.1741V48.2349C391.295 47.1144 391.538 46.3109 392.032 45.817C392.541 45.3305 393.344 45.0798 394.45 45.0798H407.984C409.105 45.0798 409.908 45.3305 410.402 45.817C410.911 46.3109 411.169 47.1144 411.169 48.2349V80.5818L416.241 69.4948C416.712 68.5144 417.332 67.8141 418.098 67.4013C418.865 66.9885 419.794 66.782 420.899 66.782H424.615C425.713 66.782 426.649 66.9885 427.416 67.4013C428.183 67.8141 428.802 68.5144 429.274 69.4948L434.375 80.5818V48.2349C434.375 47.1144 434.618 46.3109 435.112 45.817C435.599 45.3305 436.409 45.0798 437.53 45.0798Z" fill="#FF00FF"/>
<path d="M518.736 91.7573C518.736 94.4553 518.337 96.9027 517.556 99.0995C516.767 101.281 515.359 103.154 513.339 104.702C511.312 106.257 508.518 107.474 504.965 108.358C501.427 109.243 496.93 109.685 491.49 109.685C486.042 109.685 481.531 109.243 477.955 108.358C474.373 107.474 471.572 106.257 469.552 104.702C467.524 103.154 466.117 101.281 465.335 99.0995C464.546 96.9027 464.156 94.4553 464.156 91.7573V61.7693C464.156 59.0786 464.546 56.6312 465.335 54.4271C466.117 52.2304 467.524 50.3432 469.552 48.7657C471.572 47.1734 474.373 45.9497 477.955 45.0798C481.531 44.1952 486.042 43.7529 491.49 43.7529C496.93 43.7529 501.427 44.1952 504.965 45.0798C508.518 45.9497 511.312 47.1734 513.339 48.7657C515.359 50.3432 516.767 52.2304 517.556 54.4271C518.337 56.6312 518.736 59.0786 518.736 61.7693V91.7573ZM484.118 88.5727C484.118 89.7522 484.546 90.74 485.416 91.5214C486.3 92.3102 488.32 92.7009 491.49 92.7009C494.652 92.7009 496.665 92.3102 497.535 91.5214C498.419 90.74 498.861 89.7522 498.861 88.5727V64.9244C498.861 63.826 498.419 62.8824 497.535 62.0937C496.665 61.2901 494.652 60.8847 491.49 60.8847C488.32 60.8847 486.3 61.2901 485.416 62.0937C484.546 62.8824 484.118 63.826 484.118 64.9244V88.5727Z" fill="#FF00FF"/>
<path d="M549.749 60.8847V72.1486H556.354C557.866 72.1486 558.89 71.7579 559.421 70.9692C559.952 70.1656 560.217 69.1852 560.217 68.0205V65.0128C560.217 63.8555 559.952 62.8824 559.421 62.0937C558.89 61.2901 557.866 60.8847 556.354 60.8847H549.749ZM546.594 108.358H533.06C531.939 108.358 531.128 108.115 530.642 107.621C530.148 107.112 529.905 106.309 529.905 105.203V48.2349C529.905 47.1144 530.148 46.3109 530.642 45.817C531.128 45.3305 531.939 45.0798 533.06 45.0798H562.34C568.901 45.0798 573.427 46.451 575.904 49.1785C578.396 51.8913 579.649 55.4223 579.649 59.7642V63.8039C579.649 66.266 579.273 68.3596 578.528 70.0846C577.799 71.8169 576.531 73.0553 574.725 73.7999C577.887 74.1537 580.452 75.4511 582.421 77.6921C584.381 79.9184 585.369 82.8744 585.369 86.5676V105.203C585.369 106.309 585.111 107.112 584.603 107.621C584.109 108.115 583.305 108.358 582.185 108.358H568.562C567.456 108.358 566.653 108.115 566.144 107.621C565.65 107.112 565.407 106.309 565.407 105.203V91.7573C565.407 90.4599 565.149 89.5089 564.64 88.8971C564.146 88.2705 563.291 87.9535 562.075 87.9535H549.749V105.203C549.749 106.309 549.499 107.112 549.012 107.621C548.518 108.115 547.715 108.358 546.594 108.358Z" fill="#FF00FF"/>
<path d="M627.997 108.358H598.363C597.243 108.358 596.432 108.115 595.945 107.621C595.451 107.112 595.208 106.309 595.208 105.203V48.2349C595.208 47.1144 595.451 46.3109 595.945 45.817C596.432 45.3305 597.243 45.0798 598.363 45.0798H627.997C635.31 45.0798 640.736 46.5468 644.274 49.4734C647.827 52.4073 649.611 56.9187 649.611 63.0077V90.4304C649.611 96.5268 647.827 101.038 644.274 103.965C640.736 106.899 635.31 108.358 627.997 108.358ZM615.141 61.8578V91.7573H625.609C627.024 91.7573 628.064 91.4034 628.735 90.6958C629.398 89.9881 629.737 88.9118 629.737 87.4522V66.0744C629.737 64.6221 629.398 63.5606 628.735 62.8898C628.064 62.2042 627.024 61.8578 625.609 61.8578H615.141Z" fill="#FF00FF"/>
<path d="M55.9868 104.087H28.2103C27.1046 104.087 26.3011 103.844 25.7924 103.35C25.2985 102.841 25.0553 102.038 25.0553 100.932V90.6414C25.0553 89.5209 25.2985 88.7174 25.7924 88.2235C26.3011 87.7369 27.1046 87.4863 28.2103 87.4863H51.8587C52.6253 87.4863 53.193 87.243 53.5689 86.7491C53.9596 86.2405 54.1586 85.6286 54.1586 84.9209C54.1586 83.9184 53.9596 83.196 53.5689 82.7389C53.193 82.2671 52.6253 82.0018 51.8587 81.9428L38.6781 80.0851C34.5647 79.4954 31.2622 78.1537 28.7706 76.0454C26.2937 73.9445 25.0553 70.4282 25.0553 65.4892V56.2599C25.0553 51.2914 26.6623 47.4728 29.8911 44.819C33.1125 42.1505 37.565 40.8088 43.2486 40.8088H67.87C68.9683 40.8088 69.7645 41.0595 70.2584 41.546C70.767 42.0399 71.025 42.8434 71.025 43.9639V54.4317C71.025 55.5374 70.767 56.341 70.2584 56.8496C69.7645 57.3435 68.9683 57.5868 67.87 57.5868H47.3767C46.61 57.5868 46.0203 57.8448 45.6075 58.3534C45.2094 58.8473 45.0178 59.4665 45.0178 60.2111C45.0178 60.9777 45.2094 61.6264 45.6075 62.1572C46.0203 62.688 46.61 62.9828 47.3767 63.0418L60.4688 64.7815C64.5748 65.3713 67.8847 66.7276 70.4058 68.8507C72.9196 70.959 74.1801 74.4679 74.1801 79.3774V88.6068C74.1801 93.6048 72.5583 97.438 69.3148 100.107C66.0713 102.76 61.6261 104.087 55.9868 104.087Z" fill="#00FFFF"/>
<path d="M127.712 104.087H86.9321C85.8116 104.087 85.0007 103.844 84.5142 103.35C84.0203 102.841 83.777 102.038 83.777 100.932V43.9639C83.777 42.8434 84.0203 42.0399 84.5142 41.546C85.0007 41.0595 85.8116 40.8088 86.9321 40.8088H127.712C128.833 40.8088 129.636 41.0595 130.13 41.546C130.639 42.0399 130.897 42.8434 130.897 43.9639V54.2548C130.897 55.3605 130.639 56.164 130.13 56.6727C129.636 57.1666 128.833 57.4099 127.712 57.4099H103.445V64.1918H120.606C121.704 64.1918 122.5 64.4424 122.994 64.929C123.503 65.4229 123.761 66.2264 123.761 67.3469V76.7531C123.761 77.8736 123.503 78.6845 122.994 79.171C122.5 79.6649 121.704 79.9082 120.606 79.9082H103.445V87.4863H127.712C128.833 87.4863 129.636 87.7369 130.13 88.2235C130.639 88.7174 130.897 89.5209 130.897 90.6414V100.932C130.897 102.038 130.639 102.841 130.13 103.35C129.636 103.844 128.833 104.087 127.712 104.087Z" fill="#00FFFF"/>
<path d="M183.365 104.087H161.899C154.586 104.087 149.146 102.628 145.593 99.6938C142.054 96.7672 140.285 92.2558 140.285 86.1594V58.8252C140.285 52.7362 142.054 48.21 145.593 45.2613C149.146 42.2979 154.586 40.8088 161.899 40.8088H183.365C184.464 40.8088 185.26 41.0595 185.754 41.546C186.262 42.0399 186.52 42.8434 186.52 43.9639V54.6086C186.52 55.7144 186.262 56.5179 185.754 57.0265C185.26 57.5204 184.464 57.7637 183.365 57.7637H165.673C163.86 57.7637 162.518 58.1396 161.633 58.8842C160.764 59.614 160.336 60.705 160.336 62.1572V83.0928C160.336 84.5524 160.764 85.6213 161.633 86.3068C162.518 86.9776 163.86 87.3094 165.673 87.3094H183.365C184.464 87.3094 185.26 87.56 185.754 88.0465C186.262 88.5404 186.52 89.3439 186.52 90.4644V100.932C186.52 102.038 186.262 102.841 185.754 103.35C185.26 103.844 184.464 104.087 183.365 104.087Z" fill="#00FFFF"/>
<path d="M216.299 56.6137V67.8776H222.904C224.415 67.8776 225.439 67.4869 225.97 66.6982C226.501 65.8946 226.766 64.9142 226.766 63.7495V60.7418C226.766 59.5845 226.501 58.6114 225.97 57.8227C225.439 57.0192 224.415 56.6137 222.904 56.6137H216.299ZM213.144 104.087H199.609C198.489 104.087 197.678 103.844 197.191 103.35C196.697 102.841 196.454 102.038 196.454 100.932V43.9639C196.454 42.8434 196.697 42.0399 197.191 41.546C197.678 41.0595 198.489 40.8088 199.609 40.8088H228.889C235.45 40.8088 239.976 42.18 242.453 44.9075C244.945 47.6203 246.198 51.1513 246.198 55.4932V59.5329C246.198 61.995 245.822 64.0886 245.078 65.8136C244.348 67.5459 243.08 68.7843 241.274 69.5289C244.436 69.8827 247.002 71.1801 248.97 73.4211C250.931 75.6474 251.919 78.6034 251.919 82.2966V100.932C251.919 102.038 251.661 102.841 251.152 103.35C250.658 103.844 249.854 104.087 248.734 104.087H235.111C234.005 104.087 233.202 103.844 232.693 103.35C232.199 102.841 231.956 102.038 231.956 100.932V87.4863C231.956 86.1889 231.698 85.2379 231.189 84.6261C230.695 83.9995 229.84 83.6825 228.624 83.6825H216.299V100.932C216.299 102.038 216.048 102.841 215.561 103.35C215.068 103.844 214.264 104.087 213.144 104.087Z" fill="#00FFFF"/>
<path d="M305.693 104.087H264.913C263.792 104.087 262.981 103.844 262.495 103.35C262.001 102.841 261.757 102.038 261.757 100.932V43.9639C261.757 42.8434 262.001 42.0399 262.495 41.546C262.981 41.0595 263.792 40.8088 264.913 40.8088H305.693C306.813 40.8088 307.617 41.0595 308.111 41.546C308.619 42.0399 308.877 42.8434 308.877 43.9639V54.2548C308.877 55.3605 308.619 56.164 308.111 56.6727C307.617 57.1666 306.813 57.4099 305.693 57.4099H281.425V64.1918H298.586C299.685 64.1918 300.481 64.4424 300.975 64.929C301.483 65.4229 301.741 66.2264 301.741 67.3469V76.7531C301.741 77.8736 301.483 78.6845 300.975 79.171C300.481 79.6649 299.685 79.9082 298.586 79.9082H281.425V87.4863H305.693C306.813 87.4863 307.617 87.7369 308.111 88.2235C308.619 88.7174 308.877 89.5209 308.877 90.6414V100.932C308.877 102.038 308.619 102.841 308.111 103.35C307.617 103.844 306.813 104.087 305.693 104.087Z" fill="#00FFFF"/>
<path d="M349.108 104.087H334.866C333.761 104.087 332.957 103.844 332.449 103.35C331.955 102.841 331.711 102.038 331.711 100.932V57.7637H318.796C317.676 57.7637 316.857 57.5204 316.349 57.0265C315.855 56.5179 315.612 55.7144 315.612 54.6086V43.9639C315.612 42.8434 315.855 42.0399 316.349 41.546C316.857 41.0595 317.676 40.8088 318.796 40.8088H365.208C366.307 40.8088 367.103 41.0595 367.597 41.546C368.105 42.0399 368.363 42.8434 368.363 43.9639V54.6086C368.363 55.7144 368.105 56.5179 367.597 57.0265C367.103 57.5204 366.307 57.7637 365.208 57.7637H352.293V100.932C352.293 102.038 352.035 102.841 351.526 103.35C351.033 103.844 350.229 104.087 349.108 104.087Z" fill="#00FFFF"/>
<path d="M442.11 40.8088H455.202C456.323 40.8088 457.126 41.0595 457.62 41.546C458.107 42.0399 458.357 42.8434 458.357 43.9639V78.08C458.357 79.9524 458.276 81.6921 458.121 83.2992C457.981 84.9136 457.539 86.8007 456.794 88.9606L452.401 100.932C452.106 101.802 451.671 102.547 451.103 103.173C450.551 103.785 449.806 104.087 448.862 104.087H437.186C436.242 104.087 435.387 103.881 434.62 103.468C433.868 103.055 433.382 102.392 433.146 101.463L429.106 87.1324C428.929 86.5427 428.701 86.152 428.428 85.953C428.17 85.7392 427.868 85.6286 427.514 85.6286H426.718C426.364 85.6286 426.047 85.7392 425.774 85.953C425.516 86.152 425.31 86.5427 425.155 87.1324L420.997 101.463C420.776 102.333 420.349 102.989 419.7 103.439C419.051 103.874 418.255 104.087 417.312 104.087H405.723C404.78 104.087 403.962 103.792 403.276 103.203C402.605 102.613 402.133 101.861 401.861 100.932L397.467 88.7837C396.7 86.6238 396.236 84.7367 396.081 83.1223C395.941 81.5152 395.875 79.7755 395.875 77.9031V43.9639C395.875 42.8434 396.118 42.0399 396.612 41.546C397.121 41.0595 397.924 40.8088 399.03 40.8088H412.564C413.685 40.8088 414.488 41.0595 414.982 41.546C415.491 42.0399 415.749 42.8434 415.749 43.9639V76.3108L420.821 65.2238C421.292 64.2434 421.912 63.5431 422.678 63.1303C423.445 62.7175 424.374 62.511 425.479 62.511H429.195C430.293 62.511 431.229 62.7175 431.996 63.1303C432.763 63.5431 433.382 64.2434 433.854 65.2238L438.955 76.3108V43.9639C438.955 42.8434 439.198 42.0399 439.692 41.546C440.179 41.0595 440.989 40.8088 442.11 40.8088Z" fill="#00FFFF"/>
<path d="M523.316 87.4863C523.316 90.1843 522.917 92.6317 522.136 94.8285C521.347 97.0105 519.939 98.8829 517.92 100.431C515.892 101.986 513.098 103.203 509.545 104.087C506.007 104.972 501.51 105.414 496.07 105.414C490.622 105.414 486.111 104.972 482.535 104.087C478.953 103.203 476.152 101.986 474.132 100.431C472.105 98.8829 470.697 97.0105 469.915 94.8285C469.126 92.6317 468.736 90.1843 468.736 87.4863V57.4983C468.736 54.8076 469.126 52.3603 469.915 50.1561C470.697 47.9594 472.105 46.0722 474.132 44.4947C476.152 42.9024 478.953 41.6787 482.535 40.8088C486.111 39.9242 490.622 39.4819 496.07 39.4819C501.51 39.4819 506.007 39.9242 509.545 40.8088C513.098 41.6787 515.892 42.9024 517.92 44.4947C519.939 46.0722 521.347 47.9594 522.136 50.1561C522.917 52.3603 523.316 54.8076 523.316 57.4983V87.4863ZM488.698 84.3017C488.698 85.4812 489.126 86.469 489.996 87.2504C490.88 88.0392 492.9 88.4299 496.07 88.4299C499.232 88.4299 501.245 88.0392 502.115 87.2504C502.999 86.469 503.442 85.4812 503.442 84.3017V60.6534C503.442 59.555 502.999 58.6114 502.115 57.8227C501.245 57.0192 499.232 56.6137 496.07 56.6137C492.9 56.6137 490.88 57.0192 489.996 57.8227C489.126 58.6114 488.698 59.555 488.698 60.6534V84.3017Z" fill="#00FFFF"/>
<path d="M554.329 56.6137V67.8776H560.934C562.446 67.8776 563.47 67.4869 564.001 66.6982C564.532 65.8946 564.797 64.9142 564.797 63.7495V60.7418C564.797 59.5845 564.532 58.6114 564.001 57.8227C563.47 57.0192 562.446 56.6137 560.934 56.6137H554.329ZM551.174 104.087H537.64C536.519 104.087 535.709 103.844 535.222 103.35C534.728 102.841 534.485 102.038 534.485 100.932V43.9639C534.485 42.8434 534.728 42.0399 535.222 41.546C535.709 41.0595 536.519 40.8088 537.64 40.8088H566.92C573.481 40.8088 578.007 42.18 580.484 44.9075C582.976 47.6203 584.229 51.1513 584.229 55.4932V59.5329C584.229 61.995 583.853 64.0886 583.108 65.8136C582.379 67.5459 581.111 68.7843 579.305 69.5289C582.467 69.8827 585.032 71.1801 587.001 73.4211C588.961 75.6474 589.949 78.6034 589.949 82.2966V100.932C589.949 102.038 589.691 102.841 589.183 103.35C588.689 103.844 587.885 104.087 586.765 104.087H573.142C572.036 104.087 571.233 103.844 570.724 103.35C570.23 102.841 569.987 102.038 569.987 100.932V87.4863C569.987 86.1889 569.729 85.2379 569.22 84.6261C568.726 83.9995 567.871 83.6825 566.655 83.6825H554.329V100.932C554.329 102.038 554.079 102.841 553.592 103.35C553.098 103.844 552.295 104.087 551.174 104.087Z" fill="#00FFFF"/>
<path d="M632.577 104.087H602.943C601.823 104.087 601.012 103.844 600.525 103.35C600.032 102.841 599.788 102.038 599.788 100.932V43.9639C599.788 42.8434 600.032 42.0399 600.525 41.546C601.012 41.0595 601.823 40.8088 602.943 40.8088H632.577C639.89 40.8088 645.316 42.2758 648.854 45.2024C652.407 48.1363 654.191 52.6477 654.191 58.7368V86.1594C654.191 92.2558 652.407 96.7672 648.854 99.6938C645.316 102.628 639.89 104.087 632.577 104.087ZM619.721 57.5868V87.4863H630.189C631.604 87.4863 632.644 87.1324 633.315 86.4248C633.978 85.7171 634.317 84.6408 634.317 83.1812V61.8034C634.317 60.3511 633.978 59.2896 633.315 58.6188C632.644 57.9332 631.604 57.5868 630.189 57.5868H619.721Z" fill="#00FFFF"/>
<path d="M53.6969 106.223H25.9204C24.8147 106.223 24.0111 105.98 23.5025 105.486C23.0086 104.977 22.7653 104.173 22.7653 103.068V92.7769C22.7653 91.6564 23.0086 90.8529 23.5025 90.359C24.0111 89.8724 24.8147 89.6218 25.9204 89.6218H49.5687C50.3354 89.6218 50.903 89.3785 51.279 88.8846C51.6697 88.376 51.8687 87.7641 51.8687 87.0564C51.8687 86.0539 51.6697 85.3315 51.279 84.8744C50.903 84.4026 50.3354 84.1373 49.5687 84.0783L36.3882 82.2206C32.2748 81.6309 28.9723 80.2892 26.4807 78.1809C24.0038 76.08 22.7653 72.5637 22.7653 67.6247V58.3954C22.7653 53.4269 24.3724 49.6083 27.6012 46.9545C30.8226 44.286 35.2751 42.9443 40.9586 42.9443H65.58C66.6784 42.9443 67.4745 43.195 67.9684 43.6815C68.4771 44.1754 68.7351 44.9789 68.7351 46.0994V56.5672C68.7351 57.6729 68.4771 58.4765 67.9684 58.9851C67.4745 59.479 66.6784 59.7223 65.58 59.7223H45.0868C44.3201 59.7223 43.7304 59.9803 43.3176 60.4889C42.9195 60.9828 42.7278 61.602 42.7278 62.3466C42.7278 63.1132 42.9195 63.7619 43.3176 64.2927C43.7304 64.8235 44.3201 65.1183 45.0868 65.1773L58.1789 66.917C62.2849 67.5068 65.5948 68.8631 68.1159 70.9862C70.6296 73.0945 71.8902 76.6034 71.8902 81.5129V90.7423C71.8902 95.7403 70.2684 99.5735 67.0249 102.242C63.7813 104.896 59.3362 106.223 53.6969 106.223Z" fill="black"/>
<path d="M125.422 106.223H84.6422C83.5217 106.223 82.7108 105.98 82.2243 105.486C81.7304 104.977 81.4871 104.173 81.4871 103.068V46.0994C81.4871 44.9789 81.7304 44.1754 82.2243 43.6815C82.7108 43.195 83.5217 42.9443 84.6422 42.9443H125.422C126.543 42.9443 127.346 43.195 127.84 43.6815C128.349 44.1754 128.607 44.9789 128.607 46.0994V56.3903C128.607 57.496 128.349 58.2995 127.84 58.8082C127.346 59.3021 126.543 59.5453 125.422 59.5453H101.155V66.3273H118.316C119.414 66.3273 120.211 66.5779 120.704 67.0645C121.213 67.5584 121.471 68.3619 121.471 69.4824V78.8886C121.471 80.0091 121.213 80.82 120.704 81.3065C120.211 81.8004 119.414 82.0437 118.316 82.0437H101.155V89.6218H125.422C126.543 89.6218 127.346 89.8724 127.84 90.359C128.349 90.8529 128.607 91.6564 128.607 92.7769V103.068C128.607 104.173 128.349 104.977 127.84 105.486C127.346 105.98 126.543 106.223 125.422 106.223Z" fill="black"/>
<path d="M181.075 106.223H159.609C152.296 106.223 146.856 104.763 143.303 101.829C139.764 98.9027 137.995 94.3913 137.995 88.2949V60.9607C137.995 54.8717 139.764 50.3455 143.303 47.3968C146.856 44.4334 152.296 42.9443 159.609 42.9443H181.075C182.174 42.9443 182.97 43.195 183.464 43.6815C183.972 44.1754 184.23 44.9789 184.23 46.0994V56.7441C184.23 57.8499 183.972 58.6534 183.464 59.162C182.97 59.6559 182.174 59.8992 181.075 59.8992H163.383C161.57 59.8992 160.228 60.2751 159.343 61.0197C158.474 61.7495 158.046 62.8405 158.046 64.2927V85.2283C158.046 86.6879 158.474 87.7568 159.343 88.4423C160.228 89.1131 161.57 89.4449 163.383 89.4449H181.075C182.174 89.4449 182.97 89.6955 183.464 90.182C183.972 90.6759 184.23 91.4794 184.23 92.5999V103.068C184.23 104.173 183.972 104.977 183.464 105.486C182.97 105.98 182.174 106.223 181.075 106.223Z" fill="black"/>
<path d="M214.009 58.7492V70.0131H220.614C222.125 70.0131 223.149 69.6224 223.68 68.8337C224.211 68.0301 224.476 67.0497 224.476 65.885V62.8773C224.476 61.72 224.211 60.7469 223.68 59.9582C223.149 59.1547 222.125 58.7492 220.614 58.7492H214.009ZM210.853 106.223H197.319C196.199 106.223 195.388 105.98 194.901 105.486C194.407 104.977 194.164 104.173 194.164 103.068V46.0994C194.164 44.9789 194.407 44.1754 194.901 43.6815C195.388 43.195 196.199 42.9443 197.319 42.9443H226.599C233.16 42.9443 237.686 44.3155 240.163 47.043C242.655 49.7558 243.908 53.2868 243.908 57.6287V61.6684C243.908 64.1305 243.532 66.2241 242.788 67.9491C242.058 69.6814 240.79 70.9198 238.984 71.6644C242.146 72.0182 244.712 73.3156 246.68 75.5566C248.641 77.7829 249.628 80.7389 249.628 84.4321V103.068C249.628 104.173 249.37 104.977 248.862 105.486C248.368 105.98 247.564 106.223 246.444 106.223H232.821C231.715 106.223 230.912 105.98 230.403 105.486C229.909 104.977 229.666 104.173 229.666 103.068V89.6218C229.666 88.3244 229.408 87.3734 228.899 86.7616C228.405 86.135 227.55 85.818 226.334 85.818H214.009V103.068C214.009 104.173 213.758 104.977 213.271 105.486C212.777 105.98 211.974 106.223 210.853 106.223Z" fill="black"/>
<path d="M303.403 106.223H262.623C261.502 106.223 260.691 105.98 260.205 105.486C259.711 104.977 259.467 104.173 259.467 103.068V46.0994C259.467 44.9789 259.711 44.1754 260.205 43.6815C260.691 43.195 261.502 42.9443 262.623 42.9443H303.403C304.523 42.9443 305.327 43.195 305.821 43.6815C306.329 44.1754 306.587 44.9789 306.587 46.0994V56.3903C306.587 57.496 306.329 58.2995 305.821 58.8082C305.327 59.3021 304.523 59.5453 303.403 59.5453H279.135V66.3273H296.296C297.395 66.3273 298.191 66.5779 298.685 67.0645C299.193 67.5584 299.451 68.3619 299.451 69.4824V78.8886C299.451 80.0091 299.193 80.82 298.685 81.3065C298.191 81.8004 297.395 82.0437 296.296 82.0437H279.135V89.6218H303.403C304.523 89.6218 305.327 89.8724 305.821 90.359C306.329 90.8529 306.587 91.6564 306.587 92.7769V103.068C306.587 104.173 306.329 104.977 305.821 105.486C305.327 105.98 304.523 106.223 303.403 106.223Z" fill="black"/>
<path d="M346.819 106.223H332.577C331.471 106.223 330.667 105.98 330.159 105.486C329.665 104.977 329.421 104.173 329.421 103.068V59.8992H316.506C315.386 59.8992 314.567 59.6559 314.059 59.162C313.565 58.6534 313.322 57.8499 313.322 56.7441V46.0994C313.322 44.9789 313.565 44.1754 314.059 43.6815C314.567 43.195 315.386 42.9443 316.506 42.9443H362.918C364.017 42.9443 364.813 43.195 365.307 43.6815C365.815 44.1754 366.073 44.9789 366.073 46.0994V56.7441C366.073 57.8499 365.815 58.6534 365.307 59.162C364.813 59.6559 364.017 59.8992 362.918 59.8992H350.003V103.068C350.003 104.173 349.745 104.977 349.236 105.486C348.743 105.98 347.939 106.223 346.819 106.223Z" fill="black"/>
<path d="M439.82 42.9443H452.912C454.033 42.9443 454.836 43.195 455.33 43.6815C455.816 44.1754 456.067 44.9789 456.067 46.0994V80.2155C456.067 82.0879 455.986 83.8276 455.831 85.4347C455.691 87.0491 455.249 88.9362 454.504 91.0961L450.111 103.068C449.816 103.938 449.381 104.682 448.813 105.309C448.261 105.921 447.516 106.223 446.572 106.223H434.896C433.952 106.223 433.097 106.016 432.33 105.604C431.578 105.191 431.092 104.527 430.856 103.598L426.816 89.2679C426.639 88.6782 426.411 88.2875 426.138 88.0885C425.88 87.8747 425.578 87.7641 425.224 87.7641H424.428C424.074 87.7641 423.757 87.8747 423.484 88.0885C423.226 88.2875 423.02 88.6782 422.865 89.2679L418.707 103.598C418.486 104.468 418.059 105.124 417.41 105.574C416.761 106.009 415.965 106.223 415.022 106.223H403.433C402.49 106.223 401.672 105.928 400.986 105.338C400.315 104.748 399.843 103.997 399.571 103.068L395.177 90.9192C394.41 88.7593 393.946 86.8721 393.791 85.2578C393.651 83.6507 393.585 81.911 393.585 80.0386V46.0994C393.585 44.9789 393.828 44.1754 394.322 43.6815C394.831 43.195 395.634 42.9443 396.74 42.9443H410.274C411.395 42.9443 412.198 43.195 412.692 43.6815C413.201 44.1754 413.459 44.9789 413.459 46.0994V78.4463L418.531 67.3593C419.002 66.3789 419.622 65.6786 420.388 65.2658C421.155 64.853 422.084 64.6465 423.189 64.6465H426.905C428.003 64.6465 428.939 64.853 429.706 65.2658C430.473 65.6786 431.092 66.3789 431.564 67.3593L436.665 78.4463V46.0994C436.665 44.9789 436.908 44.1754 437.402 43.6815C437.889 43.195 438.699 42.9443 439.82 42.9443Z" fill="black"/>
<path d="M521.026 89.6218C521.026 92.3198 520.628 94.7672 519.846 96.964C519.057 99.146 517.649 101.018 515.63 102.566C513.602 104.122 510.809 105.338 507.255 106.223C503.717 107.107 499.22 107.55 493.78 107.55C488.332 107.55 483.821 107.107 480.246 106.223C476.663 105.338 473.862 104.122 471.842 102.566C469.815 101.018 468.407 99.146 467.625 96.964C466.836 94.7672 466.446 92.3198 466.446 89.6218V59.6338C466.446 56.9431 466.836 54.4957 467.625 52.2916C468.407 50.0949 469.815 48.2077 471.842 46.6302C473.862 45.0379 476.663 43.8142 480.246 42.9443C483.821 42.0597 488.332 41.6174 493.78 41.6174C499.22 41.6174 503.717 42.0597 507.255 42.9443C510.809 43.8142 513.602 45.0379 515.63 46.6302C517.649 48.2077 519.057 50.0949 519.846 52.2916C520.628 54.4957 521.026 56.9431 521.026 59.6338V89.6218ZM486.408 86.4372C486.408 87.6167 486.836 88.6045 487.706 89.3859C488.59 90.1747 490.61 90.5654 493.78 90.5654C496.942 90.5654 498.955 90.1747 499.825 89.3859C500.709 88.6045 501.152 87.6167 501.152 86.4372V62.7889C501.152 61.6905 500.709 60.7469 499.825 59.9582C498.955 59.1546 496.942 58.7492 493.78 58.7492C490.61 58.7492 488.59 59.1546 487.706 59.9582C486.836 60.7469 486.408 61.6905 486.408 62.7889V86.4372Z" fill="black"/>
<path d="M552.039 58.7492V70.0131H558.644C560.156 70.0131 561.18 69.6224 561.711 68.8337C562.242 68.0301 562.507 67.0497 562.507 65.885V62.8773C562.507 61.72 562.242 60.7469 561.711 59.9582C561.18 59.1547 560.156 58.7492 558.644 58.7492H552.039ZM548.884 106.223H535.35C534.229 106.223 533.419 105.98 532.932 105.486C532.438 104.977 532.195 104.173 532.195 103.068V46.0994C532.195 44.9789 532.438 44.1754 532.932 43.6815C533.419 43.195 534.229 42.9443 535.35 42.9443H564.63C571.191 42.9443 575.717 44.3155 578.194 47.043C580.686 49.7558 581.939 53.2868 581.939 57.6287V61.6684C581.939 64.1305 581.563 66.2241 580.818 67.9491C580.089 69.6814 578.821 70.9198 577.015 71.6644C580.177 72.0182 582.742 73.3156 584.711 75.5566C586.672 77.7829 587.659 80.7389 587.659 84.4321V103.068C587.659 104.173 587.401 104.977 586.893 105.486C586.399 105.98 585.595 106.223 584.475 106.223H570.852C569.746 106.223 568.943 105.98 568.434 105.486C567.94 104.977 567.697 104.173 567.697 103.068V89.6218C567.697 88.3244 567.439 87.3734 566.93 86.7616C566.436 86.135 565.581 85.818 564.365 85.818H552.039V103.068C552.039 104.173 551.789 104.977 551.302 105.486C550.808 105.98 550.005 106.223 548.884 106.223Z" fill="black"/>
<path d="M630.288 106.223H600.653C599.533 106.223 598.722 105.98 598.236 105.486C597.742 104.977 597.498 104.173 597.498 103.068V46.0994C597.498 44.9789 597.742 44.1754 598.236 43.6815C598.722 43.195 599.533 42.9443 600.653 42.9443H630.288C637.6 42.9443 643.026 44.4113 646.564 47.3379C650.117 50.2718 651.901 54.7832 651.901 60.8723V88.2949C651.901 94.3913 650.117 98.9027 646.564 101.829C643.026 104.763 637.6 106.223 630.288 106.223ZM617.431 59.7223V89.6218H627.899C629.314 89.6218 630.354 89.2679 631.025 88.5603C631.688 87.8526 632.027 86.7763 632.027 85.3167V63.9389C632.027 62.4866 631.688 61.4251 631.025 60.7543C630.354 60.0687 629.314 59.7223 627.899 59.7223H617.431Z" fill="black"/>
</svg>
